<svg xmlns="http://www.w3.org/2000/svg" viewBox="0 0 32 32" role="img" aria-label="Trellis file">
  <!-- Stem: diagonal band from lower-center to upper-right, matching original's curve -->
  <path fill="#19b7c6" d="M13.5 28 C13.5 22 14.5 15 16 10 C17 6.5 19 4.5 20.5 4.5 C22 4.5 22 6 21.5 7 C20 9.5 18.5 12 18 16 C17.5 20 18 24 18 28Z"/>
  <!-- Top-right leaf: upper-right quadrant -->
  <path fill="#19b7c6" d="M20 5 C23.5 2.5 28 5.5 28.5 11.5 C24.5 13 20.5 11 20 5Z"/>
  <!-- Left leaf: left-center -->
  <path fill="#19b7c6" d="M15.5 13 C11 10 5 12.5 4 18 C8 20 13.5 18 15.5 13Z"/>
  <!-- Lower-right leaf: lower-right -->
  <path fill="#19b7c6" d="M17.5 21 C21.5 18 27 19.5 28 24.5 C24 27.5 18.5 26 17.5 21Z"/>
</svg>
